<svg aria-hidden="true" style="position: absolute; width: 0; height: 0; overflow: hidden;" version="1.1" xmlns="http://www.w3.org/2000/svg" xmlns:xlink="http://www.w3.org/1999/xlink">
<defs>
<symbol id="icon-llvc-cancel" viewBox="0 0 32 32">
<path d="M4.418 4.508c0.595-0.595 1.56-0.595 2.155 0l21.011 21.011c0.595 0.595 0.595 1.56 0 2.155s-1.56 0.595-2.155 0l-21.011-21.011c-0.595-0.595-0.595-1.56 0-2.155z"></path>
<path d="M4.352 27.61c-0.595-0.595-0.595-1.56 0-2.155l21.011-21.011c0.595-0.595 1.56-0.595 2.155 0s0.595 1.56 0 2.155l-21.011 21.011c-0.595 0.595-1.56 0.595-2.155 0z"></path>
</symbol>
<symbol id="icon-llvc-check" viewBox="0 0 32 32">
<path d="M11.142 25.889c-0.274 0-0.536-0.108-0.729-0.301l-7.111-7.111c-0.402-0.402-0.402-1.054 0-1.456s1.054-0.402 1.456 0l6.384 6.383 16.1-16.102c0.402-0.402 1.054-0.402 1.456 0s0.402 1.054 0 1.456l-16.829 16.829c-0.193 0.195-0.454 0.303-0.727 0.303z"></path>
<path d="M28.133 7.867c-0.090-0.090-0.235-0.090-0.325 0l-16.666 16.668-6.95-6.948c-0.090-0.090-0.235-0.090-0.325-0s-0.090 0.235 0 0.325l7.111 7.111c0.042 0.042 0.1 0.067 0.163 0.067 0.062 0 0.117-0.024 0.159-0.066l0.002-0.002 16.829-16.829c0.090-0.090 0.090-0.235 0-0.325zM26.677 6.736c0.715-0.715 1.873-0.715 2.587 0s0.715 1.873 0 2.587l-16.827 16.827c-0 0-0.001 0.001-0.001 0.001-0.344 0.346-0.809 0.538-1.294 0.538-0.484 0-0.95-0.191-1.294-0.535l-7.111-7.111c-0.715-0.715-0.715-1.873 0-2.588s1.873-0.715 2.587 0l5.818 5.817 15.535-15.536z"></path>
</symbol>
<symbol id="icon-llvc-add" viewBox="0 0 32 32">
<path d="M16 2.667c0.736 0 1.333 0.555 1.333 1.24v24.186c0 0.685-0.597 1.24-1.333 1.24s-1.333-0.555-1.333-1.24v-24.186c0-0.685 0.597-1.24 1.333-1.24z"></path>
<path d="M2.667 16c0-0.736 0.555-1.333 1.24-1.333h24.186c0.685 0 1.24 0.597 1.24 1.333s-0.555 1.333-1.24 1.333h-24.186c-0.685 0-1.24-0.597-1.24-1.333z"></path>
</symbol>
<symbol id="icon-llvc-expand" viewBox="0 0 32 32">
<path d="M31.665 0.335c0.446 0.446 0.446 1.17 0 1.616l-11.429 11.429c-0.446 0.446-1.17 0.446-1.616 0s-0.446-1.17 0-1.616l11.429-11.429c0.446-0.446 1.17-0.446 1.616 0z"></path>
<path d="M20.572 1.143c0-0.631 0.512-1.143 1.143-1.143h9.143c0.631 0 1.143 0.512 1.143 1.143v9.143c0 0.631-0.512 1.143-1.143 1.143s-1.143-0.512-1.143-1.143v-8h-8c-0.631 0-1.143-0.512-1.143-1.143z"></path>
<path d="M13.38 18.621c0.446 0.446 0.446 1.17 0 1.616l-11.429 11.429c-0.446 0.446-1.17 0.446-1.616 0s-0.446-1.17 0-1.616l11.429-11.429c0.446-0.446 1.17-0.446 1.616 0z"></path>
<path d="M1.143 20.571c0.631 0 1.143 0.512 1.143 1.143v8h8c0.631 0 1.143 0.512 1.143 1.143s-0.512 1.143-1.143 1.143h-9.143c-0.631 0-1.143-0.511-1.143-1.143v-9.143c0-0.631 0.512-1.143 1.143-1.143z"></path>
</symbol>
<symbol id="icon-llvc-right-arrow" viewBox="0 0 32 32">
<path d="M0 16c0-0.631 0.512-1.143 1.143-1.143h29.714c0.631 0 1.143 0.512 1.143 1.143s-0.512 1.143-1.143 1.143h-29.714c-0.631 0-1.143-0.512-1.143-1.143z"></path>
<path d="M22.049 7.192c0.446-0.446 1.17-0.446 1.616 0l8 8c0.446 0.446 0.446 1.17 0 1.616l-8 8c-0.446 0.446-1.17 0.446-1.616 0s-0.446-1.17 0-1.616l7.192-7.192-7.192-7.192c-0.446-0.446-0.446-1.17 0-1.616z"></path>
</symbol>
<symbol id="icon-llvc-exit" viewBox="0 0 32 32">
<path d="M3.429 2.286c-0.303 0-0.594 0.12-0.808 0.335s-0.335 0.505-0.335 0.808v25.143c0 0.303 0.12 0.594 0.335 0.808s0.505 0.335 0.808 0.335h16c0.303 0 0.594-0.12 0.808-0.335s0.335-0.505 0.335-0.808v-4.571c0-0.631 0.512-1.143 1.143-1.143s1.143 0.512 1.143 1.143v4.571c0 0.909-0.361 1.781-1.004 2.424s-1.515 1.004-2.424 1.004h-16c-0.909 0-1.781-0.361-2.424-1.004s-1.004-1.515-1.004-2.424v-25.143c0-0.909 0.361-1.781 1.004-2.424s1.515-1.004 2.424-1.004h16c0.909 0 1.781 0.361 2.424 1.004s1.004 1.515 1.004 2.424v4.571c0 0.631-0.512 1.143-1.143 1.143s-1.143-0.512-1.143-1.143v-4.571c0-0.303-0.12-0.594-0.335-0.808s-0.505-0.335-0.808-0.335h-16z"></path>
<path d="M13.714 16c0-0.631 0.512-1.143 1.143-1.143h16c0.631 0 1.143 0.512 1.143 1.143s-0.512 1.143-1.143 1.143h-16c-0.631 0-1.143-0.512-1.143-1.143z"></path>
<path d="M25.478 10.62c0.446-0.446 1.17-0.446 1.616 0l4.572 4.571c0.446 0.446 0.446 1.17 0 1.616l-4.572 4.571c-0.446 0.446-1.17 0.446-1.616 0s-0.446-1.17 0-1.616l3.763-3.763-3.763-3.763c-0.446-0.446-0.446-1.17 0-1.616z"></path>
</symbol>
<symbol id="icon-llvc-turn-left" viewBox="0 0 32 32">
<path d="M7.048 4.211c-0.138-0.593 0.231-1.186 0.825-1.324l4.722-1.097c0.285-0.066 0.584-0.016 0.832 0.138s0.425 0.402 0.491 0.686l1.097 4.722c0.138 0.593-0.231 1.186-0.825 1.323s-1.186-0.231-1.324-0.825l-0.847-3.648-3.648 0.847c-0.593 0.138-1.186-0.231-1.324-0.825z"></path>
<path d="M11.514 18.557c2.862 4.957 8.677 7.15 13.942 5.634 0.585-0.168 1.196 0.169 1.365 0.755s-0.169 1.196-0.755 1.365c-6.215 1.789-13.081-0.796-16.462-6.651s-2.186-13.094 2.471-17.582c0.438-0.423 1.137-0.41 1.559 0.029s0.41 1.137-0.029 1.559c-3.945 3.802-4.954 9.934-2.092 14.891z"></path>
</symbol>
<symbol id="icon-llvc-turn-right" viewBox="0 0 32 32">
<path d="M24.952 4.211c0.138-0.593-0.231-1.186-0.825-1.324l-4.721-1.097c-0.285-0.066-0.584-0.016-0.833 0.138s-0.425 0.402-0.491 0.686l-1.097 4.722c-0.138 0.593 0.231 1.186 0.825 1.323s1.186-0.231 1.324-0.825l0.847-3.648 3.647 0.847c0.593 0.138 1.186-0.231 1.323-0.825z"></path>
<path d="M20.486 18.557c-2.862 4.957-8.677 7.15-13.942 5.634-0.585-0.168-1.196 0.169-1.365 0.755s0.169 1.196 0.755 1.365c6.216 1.789 13.081-0.796 16.462-6.651s2.186-13.094-2.471-17.582c-0.439-0.423-1.137-0.41-1.559 0.029s-0.41 1.137 0.029 1.559c3.945 3.802 4.954 9.934 2.092 14.891z"></path>
</symbol>
<symbol id="icon-llvc-printer" viewBox="0 0 34 32">
<path d="M1.76 10.147c0.643-0.643 1.515-1.004 2.424-1.004h25.143c0.909 0 1.781 0.361 2.424 1.004s1.004 1.515 1.004 2.424v10.286c0 0.909-0.361 1.781-1.004 2.424s-1.515 1.004-2.424 1.004h-4.571c-0.631 0-1.143-0.512-1.143-1.143s0.512-1.143 1.143-1.143h4.571c0.303 0 0.594-0.12 0.808-0.335s0.335-0.505 0.335-0.808v-10.286c0-0.303-0.12-0.594-0.335-0.808s-0.505-0.335-0.808-0.335h-25.143c-0.303 0-0.594 0.12-0.808 0.335s-0.335 0.505-0.335 0.808v10.286c0 0.303 0.12 0.594 0.335 0.808s0.505 0.335 0.808 0.335h4.571c0.631 0 1.143 0.512 1.143 1.143s-0.512 1.143-1.143 1.143h-4.571c-0.909 0-1.781-0.361-2.424-1.004s-1.004-1.515-1.004-2.424v-10.286c0-0.909 0.361-1.781 1.004-2.424z"></path>
<path d="M7.613 21.714c0-0.631 0.512-1.143 1.143-1.143h16c0.631 0 1.143 0.512 1.143 1.143v8c0 0.606-0.241 1.188-0.669 1.616s-1.010 0.67-1.616 0.67h-13.714c-0.606 0-1.188-0.241-1.616-0.67s-0.669-1.010-0.669-1.616v-8zM9.899 22.857v6.857h13.714v-6.857h-13.714z"></path>
<path d="M8.283 0.669c0.429-0.429 1.010-0.669 1.616-0.669h13.714c0.606 0 1.188 0.241 1.616 0.669s0.669 1.010 0.669 1.616v8c0 0.631-0.512 1.143-1.143 1.143s-1.143-0.512-1.143-1.143v-8h-13.714v8c0 0.631-0.512 1.143-1.143 1.143s-1.143-0.512-1.143-1.143v-8c0-0.606 0.241-1.188 0.669-1.616z"></path>
<path d="M22.47 16c0-0.631 0.512-1.143 1.143-1.143h2.286c0.631 0 1.143 0.512 1.143 1.143s-0.512 1.143-1.143 1.143h-2.286c-0.631 0-1.143-0.512-1.143-1.143z"></path>
</symbol>
<symbol id="icon-llvc-info" viewBox="0 0 34 32">
<path d="M16.63 2.286c-7.634 0-13.822 6.14-13.822 13.714s6.188 13.714 13.822 13.714c7.634 0 13.822-6.14 13.822-13.714s-6.188-13.714-13.822-13.714zM0.504 16c0-8.837 7.22-16 16.126-16s16.126 7.163 16.126 16c0 8.837-7.22 16-16.126 16s-16.126-7.163-16.126-16z"></path>
<path d="M16.63 14.857c0.636 0 1.152 0.512 1.152 1.143v8c0 0.631-0.516 1.143-1.152 1.143s-1.152-0.512-1.152-1.143v-8c0-0.631 0.516-1.143 1.152-1.143z"></path>
<path d="M14.326 10.286c0-1.262 1.031-2.286 2.304-2.286s2.304 1.023 2.304 2.286c0 1.262-1.031 2.286-2.304 2.286s-2.304-1.023-2.304-2.286z"></path>
</symbol>
<symbol id="icon-llvc-left-arrow" viewBox="0 0 34 32">
<path d="M0.756 16c0-0.631 0.512-1.143 1.143-1.143h29.714c0.631 0 1.143 0.512 1.143 1.143s-0.512 1.143-1.143 1.143h-29.714c-0.631 0-1.143-0.512-1.143-1.143z"></path>
<path d="M10.707 7.192c0.446 0.446 0.446 1.17 0 1.616l-7.192 7.192 7.192 7.192c0.446 0.446 0.446 1.17 0 1.616s-1.17 0.446-1.616 0l-8-8c-0.446-0.446-0.446-1.17 0-1.616l8-8c0.446-0.446 1.17-0.446 1.616 0z"></path>
</symbol>
<symbol id="icon-llvc-male" viewBox="0 0 34 32">
<path d="M11.042 13.714c-4.418 0-8 3.582-8 8s3.582 8 8 8 8-3.582 8-8c0-4.418-3.582-8-8-8zM0.756 21.714c0-5.681 4.605-10.286 10.286-10.286s10.286 4.605 10.286 10.286c0 5.681-4.605 10.286-10.286 10.286s-10.286-4.605-10.286-10.286z"></path>
<path d="M20.185 1.143c0-0.631 0.512-1.143 1.143-1.143h10.286c0.631 0 1.143 0.512 1.143 1.143v10.286c0 0.631-0.512 1.143-1.143 1.143s-1.143-0.512-1.143-1.143v-9.143h-9.143c-0.631 0-1.143-0.512-1.143-1.143z"></path>
<path d="M32.421 0.335c0.446 0.446 0.446 1.17 0 1.616l-14.103 14.103c-0.446 0.446-1.17 0.446-1.616 0s-0.446-1.17 0-1.616l14.103-14.103c0.446-0.446 1.17-0.446 1.616 0z"></path>
</symbol>
<symbol id="icon-llvc-female" viewBox="0 0 34 32">
<path d="M16.756 2.286c-3.787 0-6.857 3.070-6.857 6.857s3.070 6.857 6.857 6.857c3.787 0 6.857-3.070 6.857-6.857s-3.070-6.857-6.857-6.857zM7.613 9.143c0-5.049 4.093-9.143 9.143-9.143s9.143 4.093 9.143 9.143c0 5.049-4.093 9.143-9.143 9.143s-9.143-4.093-9.143-9.143z"></path>
<path d="M16.756 16c0.631 0 1.143 0.512 1.143 1.143v13.714c0 0.631-0.512 1.143-1.143 1.143s-1.143-0.512-1.143-1.143v-13.714c0-0.631 0.512-1.143 1.143-1.143z"></path>
<path d="M11.042 25.143c0-0.631 0.512-1.143 1.143-1.143h9.143c0.631 0 1.143 0.512 1.143 1.143s-0.512 1.143-1.143 1.143h-9.143c-0.631 0-1.143-0.512-1.143-1.143z"></path>
</symbol>
<symbol id="icon-llvc-reset" viewBox="0 0 32 32">
<path d="M11.665 0.335c0.446 0.446 0.446 1.17 0 1.616l-4.906 4.906 4.906 4.906c0.446 0.446 0.446 1.17 0 1.616s-1.17 0.446-1.616 0l-5.714-5.714c-0.446-0.446-0.446-1.17 0-1.616l5.714-5.714c0.446-0.446 1.17-0.446 1.616 0z"></path>
<path d="M4 6.857c0-0.631 0.512-1.143 1.143-1.143h10.857c2.599 0 5.14 0.771 7.302 2.215s3.846 3.497 4.841 5.898c0.995 2.402 1.255 5.044 0.748 7.594s-1.759 4.891-3.597 6.729c-1.838 1.838-4.18 3.090-6.729 3.597s-5.192 0.247-7.594-0.748c-2.402-0.995-4.454-2.679-5.898-4.841s-2.215-4.702-2.215-7.302c0-0.631 0.512-1.143 1.143-1.143s1.143 0.512 1.143 1.143c0 2.147 0.637 4.247 1.83 6.032s2.889 3.177 4.873 3.999 4.167 1.037 6.273 0.618c2.106-0.419 4.041-1.453 5.559-2.971s2.552-3.453 2.971-5.559c0.419-2.106 0.204-4.289-0.618-6.273s-2.213-3.68-3.999-4.873c-1.785-1.193-3.885-1.83-6.032-1.83h-10.857c-0.631 0-1.143-0.512-1.143-1.143z"></path>
</symbol>
<symbol id="icon-llvc-toolbox" viewBox="0 0 32 32">
<path d="M3.429 11.428c-0.631 0-1.143 0.512-1.143 1.143v16c0 0.631 0.512 1.143 1.143 1.143h25.143c0.631 0 1.143-0.512 1.143-1.143v-16c0-0.631-0.512-1.143-1.143-1.143h-25.143zM0 12.571c0-1.894 1.535-3.429 3.429-3.429h25.143c1.893 0 3.429 1.535 3.429 3.429v16c0 1.893-1.535 3.429-3.429 3.429h-25.143c-1.894 0-3.429-1.535-3.429-3.429v-16z"></path>
<path d="M0 19.429c0-0.631 0.512-1.143 1.143-1.143h29.714c0.631 0 1.143 0.512 1.143 1.143s-0.512 1.143-1.143 1.143h-29.714c-0.631 0-1.143-0.512-1.143-1.143z"></path>
<path d="M16 16c0.631 0 1.143 0.512 1.143 1.143v4.571c0 0.631-0.512 1.143-1.143 1.143s-1.143-0.512-1.143-1.143v-4.571c0-0.631 0.512-1.143 1.143-1.143z"></path>
<path d="M10.343 4.629c1.5-1.5 3.535-2.343 5.657-2.343s4.157 0.843 5.657 2.343c1.5 1.5 2.343 3.535 2.343 5.657 0 0.631-0.512 1.143-1.143 1.143s-1.143-0.512-1.143-1.143c0-1.516-0.602-2.969-1.674-4.041s-2.525-1.674-4.041-1.674-2.969 0.602-4.041 1.674c-1.072 1.072-1.674 2.525-1.674 4.041 0 0.631-0.512 1.143-1.143 1.143s-1.143-0.512-1.143-1.143c0-2.122 0.843-4.157 2.343-5.657z"></path>
</symbol>
<symbol id="icon-llvc-clock" viewBox="0 0 32 32">
<path d="M16 2.286c-7.574 0-13.714 6.14-13.714 13.714s6.14 13.714 13.714 13.714c7.574 0 13.714-6.14 13.714-13.714s-6.14-13.714-13.714-13.714zM0 16c0-8.837 7.163-16 16-16s16 7.163 16 16c0 8.837-7.163 16-16 16s-16-7.163-16-16z"></path>
<path d="M16 9.143c0.631 0 1.143 0.512 1.143 1.143v5.291l5.53 6.445c0.411 0.479 0.356 1.201-0.123 1.612s-1.201 0.356-1.612-0.123l-5.806-6.766c-0.178-0.207-0.275-0.471-0.275-0.744v-5.714c0-0.631 0.512-1.143 1.143-1.143z"></path>
</symbol>
<symbol id="icon-llvc-hourglass" viewBox="0 0 32 32">
<path d="M6.857 1.143c0-0.631 0.512-1.143 1.143-1.143h16c0.631 0 1.143 0.512 1.143 1.143v6.857c0 2.425-0.963 4.75-2.678 6.465s-4.040 2.678-6.465 2.678-4.75-0.963-6.465-2.678c-1.715-1.715-2.678-4.040-2.678-6.465v-6.857zM9.143 2.286v5.714c0 1.819 0.722 3.563 2.008 4.849s3.030 2.008 4.849 2.008c1.819 0 3.563-0.723 4.849-2.008s2.008-3.030 2.008-4.849v-5.714h-13.714z"></path>
<path d="M9.535 17.535c1.715-1.715 4.040-2.678 6.465-2.678s4.75 0.963 6.465 2.678c1.715 1.715 2.678 4.040 2.678 6.465v6.857c0 0.631-0.512 1.143-1.143 1.143h-16c-0.631 0-1.143-0.512-1.143-1.143v-6.857c0-2.425 0.963-4.75 2.678-6.465zM16 17.143c-1.819 0-3.563 0.722-4.849 2.008s-2.008 3.030-2.008 4.849v5.714h13.714v-5.714c0-1.819-0.723-3.563-2.008-4.849s-3.030-2.008-4.849-2.008z"></path>
<path d="M2.286 1.143c0-0.631 0.512-1.143 1.143-1.143h25.143c0.631 0 1.143 0.512 1.143 1.143s-0.512 1.143-1.143 1.143h-25.143c-0.631 0-1.143-0.512-1.143-1.143z"></path>
<path d="M2.286 30.857c0-0.631 0.512-1.143 1.143-1.143h25.143c0.631 0 1.143 0.512 1.143 1.143s-0.512 1.143-1.143 1.143h-25.143c-0.631 0-1.143-0.512-1.143-1.143z"></path>
</symbol>
<symbol id="icon-llvc-snooze" viewBox="0 0 32 32">
<path d="M16 2.286c-2.712 0-5.364 0.804-7.619 2.311s-4.013 3.649-5.051 6.155c-1.038 2.506-1.31 5.263-0.78 7.924s1.835 5.104 3.753 7.022 4.362 3.224 7.022 3.753c2.66 0.529 5.418 0.258 7.924-0.78s4.648-2.796 6.155-5.051c1.507-2.255 2.311-4.907 2.311-7.619 0-0.631 0.512-1.143 1.143-1.143s1.143 0.512 1.143 1.143c0 3.165-0.938 6.258-2.697 8.889s-4.257 4.682-7.181 5.893c-2.924 1.211-6.141 1.528-9.244 0.91s-5.955-2.141-8.192-4.379c-2.238-2.238-3.761-5.089-4.379-8.192s-0.3-6.321 0.91-9.244c1.211-2.924 3.262-5.422 5.893-7.181s5.725-2.696 8.889-2.696c0.631 0 1.143 0.512 1.143 1.143s-0.512 1.143-1.143 1.143z"></path>
<path d="M16 9.143c0.631 0 1.143 0.512 1.143 1.143v5.714c0 0.273-0.098 0.537-0.276 0.744l-5.806 6.766c-0.411 0.479-1.133 0.534-1.612 0.123s-0.534-1.133-0.123-1.612l5.53-6.445v-5.291c0-0.631 0.512-1.143 1.143-1.143z"></path>
<path d="M21.714 1.143c0-0.631 0.512-1.143 1.143-1.143h8c0.448 0 0.855 0.262 1.041 0.671s0.115 0.887-0.181 1.225l-6.342 7.247h5.481c0.631 0 1.143 0.512 1.143 1.143s-0.512 1.143-1.143 1.143h-8c-0.448 0-0.855-0.262-1.041-0.671s-0.115-0.887 0.181-1.225l6.342-7.247h-5.481c-0.631 0-1.143-0.512-1.143-1.143z"></path>
</symbol>
<symbol id="icon-llvc-check-circle" viewBox="0 0 32 32">
<path d="M23.433 8.156c0.545 0.318 0.729 1.018 0.411 1.563l-7.336 12.57c-0 0-0 0-0 0.001-0.165 0.284-0.389 0.528-0.657 0.717-0.266 0.188-0.569 0.317-0.889 0.378-0.324 0.064-0.658 0.056-0.978-0.024s-0.618-0.23-0.873-0.438l-4.68-3.744c-0.493-0.394-0.573-1.113-0.178-1.606s1.113-0.573 1.606-0.179l4.678 3.742 7.336-12.569c0.318-0.545 1.018-0.729 1.563-0.411z"></path>
<path d="M16 2.286c-7.574 0-13.714 6.14-13.714 13.714s6.14 13.714 13.714 13.714c7.574 0 13.714-6.14 13.714-13.714s-6.14-13.714-13.714-13.714zM0 16c0-8.837 7.163-16 16-16s16 7.163 16 16c0 8.837-7.163 16-16 16s-16-7.163-16-16z"></path>
</symbol>
<symbol id="icon-llvc-clear" viewBox="0 0 32 32">
<path d="M1.143 8c0-0.631 0.512-1.143 1.143-1.143h27.429c0.631 0 1.143 0.512 1.143 1.143s-0.512 1.143-1.143 1.143h-27.429c-0.631 0-1.143-0.512-1.143-1.143z"></path>
<path d="M4.57 8c0-0.631 0.512-1.143 1.143-1.143h20.571c0.631 0 1.143 0.512 1.143 1.143v20.571c0 0.909-0.361 1.782-1.004 2.424s-1.515 1.004-2.424 1.004h-16c-0.909 0-1.781-0.361-2.424-1.004h-0c-0.643-0.643-1.004-1.515-1.004-2.424v-20.571zM6.856 9.143v19.429c0 0.303 0.12 0.594 0.335 0.808s0.505 0.335 0.808 0.335h16c0.303 0 0.594-0.12 0.808-0.335s0.335-0.505 0.335-0.808v-19.429h-18.286z"></path>
<path d="M15.998 2.286c-1.212 0-2.375 0.482-3.232 1.339s-1.339 2.020-1.339 3.232v1.143c0 0.631-0.512 1.143-1.143 1.143s-1.143-0.512-1.143-1.143v-1.143c0-1.819 0.722-3.563 2.008-4.849s3.030-2.008 4.849-2.008c1.819 0 3.563 0.722 4.849 2.008s2.008 3.030 2.008 4.849v1.143c0 0.631-0.512 1.143-1.143 1.143s-1.143-0.512-1.143-1.143v-1.143c0-1.212-0.482-2.375-1.339-3.232s-2.020-1.339-3.232-1.339z"></path>
<path d="M12.571 13.718c0.631 0 1.143 0.512 1.143 1.143v9.146c0 0.631-0.512 1.143-1.143 1.143s-1.143-0.512-1.143-1.143v-9.146c0-0.631 0.512-1.143 1.143-1.143z"></path>
<path d="M19.428 13.718c0.631 0 1.143 0.512 1.143 1.143v9.146c0 0.631-0.512 1.143-1.143 1.143s-1.143-0.512-1.143-1.143v-9.146c0-0.631 0.512-1.143 1.143-1.143z"></path>
</symbol>
<symbol id="icon-llvc-cursor" viewBox="0 0 32 32">
<path fill="#fff" style="fill: var(--color1, #fff)" d="M4.62 5.713l8.415 20.436c0.063 0.152 0.162 0.287 0.289 0.391s0.278 0.176 0.44 0.208c0.161 0.032 0.328 0.024 0.486-0.024s0.301-0.134 0.417-0.25l4.596-4.596 4.949 4.951c0.188 0.187 0.442 0.292 0.707 0.292s0.519-0.105 0.707-0.292l1.413-1.415c0.093-0.093 0.167-0.203 0.217-0.324s0.076-0.252 0.076-0.383c0-0.131-0.026-0.261-0.076-0.383s-0.124-0.232-0.217-0.324l-4.949-4.949 4.596-4.596c0.116-0.116 0.202-0.26 0.25-0.417s0.056-0.325 0.023-0.486-0.104-0.312-0.209-0.44c-0.105-0.127-0.239-0.226-0.391-0.289l-20.435-8.415c-0.183-0.075-0.383-0.095-0.577-0.056s-0.371 0.134-0.511 0.273c-0.14 0.14-0.235 0.317-0.273 0.511s-0.019 0.394 0.056 0.577z"></path>
<path fill="#000" style="fill: var(--color2, #000)" d="M5.152 3.372c0.387-0.077 0.788-0.039 1.154 0.112l20.434 8.415c0.305 0.125 0.574 0.324 0.783 0.578s0.353 0.556 0.417 0.879c0.065 0.323 0.049 0.657-0.047 0.972s-0.267 0.602-0.5 0.835c0 0 0 0 0 0l-3.889 3.889 4.242 4.242c0 0-0-0 0 0 0.186 0.186 0.333 0.406 0.434 0.649s0.152 0.503 0.152 0.766c0 0.263-0.052 0.523-0.152 0.766s-0.248 0.463-0.433 0.648l-1.415 1.417c-0.375 0.374-0.883 0.583-1.413 0.583s-1.038-0.21-1.413-0.583l-4.244-4.245-3.888 3.888c-0 0 0-0 0 0-0.233 0.233-0.52 0.405-0.834 0.5s-0.649 0.112-0.972 0.048c-0.323-0.064-0.625-0.207-0.879-0.417s-0.453-0.478-0.579-0.782l-8.415-20.437c-0.15-0.365-0.189-0.767-0.112-1.154s0.268-0.743 0.547-1.022c0.279-0.279 0.635-0.469 1.022-0.547zM5.545 5.333l8.414 20.435 4.596-4.596c0.188-0.188 0.442-0.293 0.707-0.293s0.52 0.105 0.707 0.293l4.948 4.949c0 0 0-0 0 0s0.001 0.001 0.002 0.001c0.001 0 0.001-0 0.002-0.001s0 0 0 0l1.411-1.413-4.949-4.95c-0.391-0.391-0.391-1.024 0-1.414l4.596-4.596-20.435-8.415z"></path>
</symbol>
</defs>
</svg>